<svg viewBox="0 0 132.29167 132.29103">
	<path d="m89.934737 29.358556 2.15273-2.12948 13.82323 13.87963-2.26803 2.09633zm-52.50408 63.69309 6.27147-15.57583 5.19647-.37019s-2.03459 6.58327-.4677 8.02842c1.56689 1.44516 8.74924-.35498 8.74924-.35498l.3437 3.96458-17.28119 7.36014zm22.50027-9.92561 27.84701-28.87991-.10883-3.6451-29.58335 30.19055s-5.61354 1.87647-6.39806.98419c-.78452-.89228.63213-6.09436.63213-6.09436l10.3735-10.79278.67879-4.40377-13.25119 13.01024-4.1201.11435 40.98679-42.38083 2.68412 2.7693-23.65377 23.85784-.99567 4.63956 26.76612-26.44586 5.22529 5.65428-6.54944 6.29547-.12268 3.94194 8.84555-8.45482 2.52171 2.52171-41.72905 41.72905zm6.21549-83.126442C41.119877-.737963-.000071 29.630626-.000071 66.146076c0 36.51546 29.630864 66.14453 66.146488 66.14453 36.51562 0 66.51806-44.43293 66.14453-66.14453-.37353-21.7116-3.84215-30.65029-16.86785-45.36943C102.397387 6.057505 91.172957.737151 66.146417-.000406Zm63.5 66.146482c.49538 17.67627-28.41427 63.5-63.5 63.5-35.085733 0-63.500003-28.41445-63.500003-63.5S44.784527 2.625441 66.146417 2.646078c21.36189.02064 38.76568 7.467209 33.81366 12.434984-4.95202 4.967774-57.47499 57.794224-57.47499 57.794224s-10.753185 27.00074-11.167226 28.03399c-.41404 1.03326.169862 2.39117 1.825137 1.68399 1.655279-.70718 18.254689-7.67208 28.352319-12.02683 17.04372-17.22521 51.41049-51.8519 52.84707-53.13167 1.43658-1.27977 3.97029-3.53655 7.59155.0357 4.99188 4.93215 7.2171 10.99934 7.71248 28.67561zm-32.8268-44.63092s6.73068-7.623745 14.07874.0988c7.34807 7.72255.0525 13.90562.0525 13.90562l-2.64658 2.8055-14.2651-14.13032z"/>
</svg>
